<svg xmlns="http://www.w3.org/2000/svg" xmlns:xlink="http://www.w3.org/1999/xlink">

<symbol id="github" fill-rule="evenodd" clip-rule="evenodd" stroke-linejoin="round" stroke-miterlimit="1.414"><path d="M8 0C3.58 0 0 3.582 0 8c0 3.535 2.292 6.533 5.47 7.59.4.075.547-.172.547-.385 0-.19-.007-.693-.01-1.36-2.226.483-2.695-1.073-2.695-1.073-.364-.924-.89-1.17-.89-1.17-.725-.496.056-.486.056-.486.803.056 1.225.824 1.225.824.714 1.223 1.873.87 2.33.665.072-.517.278-.87.507-1.07-1.777-.2-3.644-.888-3.644-3.953 0-.873.31-1.587.823-2.147-.09-.202-.36-1.015.07-2.117 0 0 .67-.215 2.2.82.64-.178 1.32-.266 2-.27.68.004 1.36.092 2 .27 1.52-1.035 2.19-.82 2.19-.82.43 1.102.16 1.915.08 2.117.51.56.82 1.274.82 2.147 0 3.073-1.87 3.75-3.65 3.947.28.24.54.73.54 1.48 0 1.07-.01 1.93-.01 2.19 0 .21.14.46.55.38C13.71 14.53 16 11.53 16 8c0-4.418-3.582-8-8-8"/></symbol>
<symbol id="linkedin" fill-rule="evenodd" clip-rule="evenodd" stroke-linejoin="round" stroke-miterlimit="1.414"><path d="M0 8.219v15.563c0 1.469 1.156 2.625 2.625 2.625h15.563c0.719 0 1.406-0.344 1.844-0.781 0.469-0.469 0.781-1.063 0.781-1.844v-15.563c0-1.469-1.156-2.625-2.625-2.625h-15.563c-0.781 0-1.375 0.313-1.844 0.781-0.438 0.438-0.781 1.125-0.781 1.844zM2.813 10.281c0-1 0.813-1.875 1.813-1.875 1.031 0 1.875 0.875 1.875 1.875 0 1.031-0.844 1.844-1.875 1.844-1 0-1.813-0.813-1.813-1.844zM7.844 23.125v-9.531c0-0.219 0.219-0.406 0.375-0.406h2.656c0.375 0 0.375 0.438 0.375 0.719 0.75-0.75 1.719-0.938 2.719-0.938 2.438 0 4 1.156 4 3.719v6.438c0 0.219-0.188 0.406-0.375 0.406h-2.75c-0.219 0-0.375-0.219-0.375-0.406v-5.813c0-0.969-0.281-1.5-1.375-1.5-1.375 0-1.719 0.906-1.719 2.125v5.188c0 0.219-0.219 0.406-0.438 0.406h-2.719c-0.156 0-0.375-0.219-0.375-0.406zM2.875 23.125v-9.531c0-0.219 0.219-0.406 0.375-0.406h2.719c0.25 0 0.406 0.156 0.406 0.406v9.531c0 0.219-0.188 0.406-0.406 0.406h-2.719c-0.188 0-0.375-0.219-0.375-0.406z"></path></symbol>
<symbol id="iot" fill-rule="evenodd" clip-rule="evenodd" stroke-linejoin="round" stroke-miterlimit="1.414"><path d="M30,19H26V15H24v9H8V8l9-.0009V6H13V2H11V6H8A2.002,2.002,0,0,0,6,8v3H2v2H6v6H2v2H6v3a2.0023,2.0023,0,0,0,2,2h3v4h2V26h6v4h2V26h3a2.0027,2.0027,0,0,0,2-2V21h4Z"/></symbol>

</svg>
